<mxfile host="app.diagrams.net" modified="2023-10-13T04:33:05.645Z" agent="Mozilla/5.0 (Windows NT 10.0; Win64; x64) AppleWebKit/537.36 (KHTML, like Gecko) Chrome/118.0.0.0 Safari/537.36" etag="J3EVE4S64boG_3rFVizi" version="22.0.4" type="device">
  <diagram name="Page-1" id="bBox9YBaXk8PH1yBk-Yf">
    <mxGraphModel dx="2231" dy="1241" grid="1" gridSize="10" guides="1" tooltips="1" connect="1" arrows="1" fold="1" page="1" pageScale="1" pageWidth="850" pageHeight="1100" math="0" shadow="0">
      <root>
        <mxCell id="0" />
        <mxCell id="1" parent="0" />
        <mxCell id="tVMEHPazCR392lUuAmaW-7" style="edgeStyle=orthogonalEdgeStyle;rounded=0;orthogonalLoop=1;jettySize=auto;html=1;entryX=0;entryY=0.5;entryDx=0;entryDy=0;endArrow=none;endFill=0;" edge="1" parent="1" source="tVMEHPazCR392lUuAmaW-1" target="tVMEHPazCR392lUuAmaW-6">
          <mxGeometry relative="1" as="geometry" />
        </mxCell>
        <mxCell id="tVMEHPazCR392lUuAmaW-35" value="1" style="edgeLabel;html=1;align=center;verticalAlign=middle;resizable=0;points=[];" vertex="1" connectable="0" parent="tVMEHPazCR392lUuAmaW-7">
          <mxGeometry x="0.1444" y="2" relative="1" as="geometry">
            <mxPoint x="42" y="-8" as="offset" />
          </mxGeometry>
        </mxCell>
        <mxCell id="tVMEHPazCR392lUuAmaW-1" value="User" style="rounded=0;whiteSpace=wrap;html=1;" vertex="1" parent="1">
          <mxGeometry x="170" y="270" width="120" height="80" as="geometry" />
        </mxCell>
        <mxCell id="tVMEHPazCR392lUuAmaW-2" value="bungie_usn" style="ellipse;whiteSpace=wrap;html=1;" vertex="1" parent="1">
          <mxGeometry x="90" y="160" width="120" height="80" as="geometry" />
        </mxCell>
        <mxCell id="tVMEHPazCR392lUuAmaW-3" value="&lt;u&gt;discord_usn&lt;/u&gt;" style="ellipse;whiteSpace=wrap;html=1;" vertex="1" parent="1">
          <mxGeometry x="250" y="160" width="120" height="80" as="geometry" />
        </mxCell>
        <mxCell id="tVMEHPazCR392lUuAmaW-4" value="" style="endArrow=none;html=1;rounded=0;entryX=0;entryY=0;entryDx=0;entryDy=0;exitX=0.5;exitY=1;exitDx=0;exitDy=0;" edge="1" parent="1" source="tVMEHPazCR392lUuAmaW-2" target="tVMEHPazCR392lUuAmaW-1">
          <mxGeometry width="50" height="50" relative="1" as="geometry">
            <mxPoint x="130" y="340" as="sourcePoint" />
            <mxPoint x="180" y="290" as="targetPoint" />
          </mxGeometry>
        </mxCell>
        <mxCell id="tVMEHPazCR392lUuAmaW-5" value="" style="endArrow=none;html=1;rounded=0;entryX=1;entryY=0;entryDx=0;entryDy=0;exitX=0.5;exitY=1;exitDx=0;exitDy=0;" edge="1" parent="1" source="tVMEHPazCR392lUuAmaW-3" target="tVMEHPazCR392lUuAmaW-1">
          <mxGeometry width="50" height="50" relative="1" as="geometry">
            <mxPoint x="160" y="250" as="sourcePoint" />
            <mxPoint x="180" y="290" as="targetPoint" />
          </mxGeometry>
        </mxCell>
        <mxCell id="tVMEHPazCR392lUuAmaW-13" style="edgeStyle=orthogonalEdgeStyle;rounded=0;orthogonalLoop=1;jettySize=auto;html=1;endArrow=none;endFill=0;shape=link;" edge="1" parent="1" source="tVMEHPazCR392lUuAmaW-6">
          <mxGeometry relative="1" as="geometry">
            <mxPoint x="600" y="310" as="targetPoint" />
          </mxGeometry>
        </mxCell>
        <mxCell id="tVMEHPazCR392lUuAmaW-36" value="N" style="edgeLabel;html=1;align=center;verticalAlign=middle;resizable=0;points=[];" vertex="1" connectable="0" parent="tVMEHPazCR392lUuAmaW-13">
          <mxGeometry x="-0.2097" y="1" relative="1" as="geometry">
            <mxPoint x="-39" y="-9" as="offset" />
          </mxGeometry>
        </mxCell>
        <mxCell id="tVMEHPazCR392lUuAmaW-9" value="&lt;u&gt;Incremental_Int&lt;/u&gt;" style="ellipse;whiteSpace=wrap;html=1;dashed=1;" vertex="1" parent="1">
          <mxGeometry x="510" y="160" width="120" height="80" as="geometry" />
        </mxCell>
        <mxCell id="tVMEHPazCR392lUuAmaW-10" value="activtity_name" style="ellipse;whiteSpace=wrap;html=1;dashed=1;" vertex="1" parent="1">
          <mxGeometry x="700" y="160" width="120" height="80" as="geometry" />
        </mxCell>
        <mxCell id="tVMEHPazCR392lUuAmaW-11" value="" style="endArrow=none;html=1;rounded=0;entryX=0;entryY=0;entryDx=0;entryDy=0;exitX=0.5;exitY=1;exitDx=0;exitDy=0;" edge="1" parent="1" source="tVMEHPazCR392lUuAmaW-9" target="tVMEHPazCR392lUuAmaW-16">
          <mxGeometry width="50" height="50" relative="1" as="geometry">
            <mxPoint x="590" y="240" as="sourcePoint" />
            <mxPoint x="620" y="290" as="targetPoint" />
          </mxGeometry>
        </mxCell>
        <mxCell id="tVMEHPazCR392lUuAmaW-12" value="" style="endArrow=none;html=1;rounded=0;entryX=1;entryY=0;entryDx=0;entryDy=0;exitX=0.5;exitY=1;exitDx=0;exitDy=0;" edge="1" parent="1" source="tVMEHPazCR392lUuAmaW-10" target="tVMEHPazCR392lUuAmaW-16">
          <mxGeometry width="50" height="50" relative="1" as="geometry">
            <mxPoint x="600" y="250" as="sourcePoint" />
            <mxPoint x="620" y="290" as="targetPoint" />
          </mxGeometry>
        </mxCell>
        <mxCell id="tVMEHPazCR392lUuAmaW-15" value="" style="group" vertex="1" connectable="0" parent="1">
          <mxGeometry x="405" y="265" width="90" height="90" as="geometry" />
        </mxCell>
        <mxCell id="tVMEHPazCR392lUuAmaW-14" value="" style="rhombus;whiteSpace=wrap;html=1;" vertex="1" parent="tVMEHPazCR392lUuAmaW-15">
          <mxGeometry width="90" height="90" as="geometry" />
        </mxCell>
        <mxCell id="tVMEHPazCR392lUuAmaW-6" value="Schedule" style="rhombus;whiteSpace=wrap;html=1;" vertex="1" parent="tVMEHPazCR392lUuAmaW-15">
          <mxGeometry x="5" y="5" width="80" height="80" as="geometry" />
        </mxCell>
        <mxCell id="tVMEHPazCR392lUuAmaW-17" value="" style="group" vertex="1" connectable="0" parent="1">
          <mxGeometry x="600" y="262.5" width="140" height="95" as="geometry" />
        </mxCell>
        <mxCell id="tVMEHPazCR392lUuAmaW-16" value="" style="rounded=0;whiteSpace=wrap;html=1;" vertex="1" parent="tVMEHPazCR392lUuAmaW-17">
          <mxGeometry width="140" height="95" as="geometry" />
        </mxCell>
        <mxCell id="tVMEHPazCR392lUuAmaW-8" value="Activities" style="rounded=0;whiteSpace=wrap;html=1;" vertex="1" parent="tVMEHPazCR392lUuAmaW-17">
          <mxGeometry x="10" y="7.5" width="120" height="80" as="geometry" />
        </mxCell>
        <mxCell id="tVMEHPazCR392lUuAmaW-18" value="Flawless_Table" style="rounded=0;whiteSpace=wrap;html=1;" vertex="1" parent="1">
          <mxGeometry x="170" y="510" width="120" height="80" as="geometry" />
        </mxCell>
        <mxCell id="tVMEHPazCR392lUuAmaW-19" value="&lt;u&gt;weekend&lt;/u&gt;" style="ellipse;whiteSpace=wrap;html=1;" vertex="1" parent="1">
          <mxGeometry x="30" y="620" width="120" height="80" as="geometry" />
        </mxCell>
        <mxCell id="tVMEHPazCR392lUuAmaW-20" value="&lt;u&gt;bungie_usn&lt;/u&gt;" style="ellipse;whiteSpace=wrap;html=1;" vertex="1" parent="1">
          <mxGeometry x="170" y="630" width="120" height="80" as="geometry" />
        </mxCell>
        <mxCell id="tVMEHPazCR392lUuAmaW-23" value="flawless_date" style="ellipse;whiteSpace=wrap;html=1;" vertex="1" parent="1">
          <mxGeometry x="310" y="620" width="120" height="80" as="geometry" />
        </mxCell>
        <mxCell id="tVMEHPazCR392lUuAmaW-26" value="" style="endArrow=none;html=1;rounded=0;entryX=0;entryY=1;entryDx=0;entryDy=0;" edge="1" parent="1" target="tVMEHPazCR392lUuAmaW-18">
          <mxGeometry width="50" height="50" relative="1" as="geometry">
            <mxPoint x="130" y="630" as="sourcePoint" />
            <mxPoint x="180" y="580" as="targetPoint" />
          </mxGeometry>
        </mxCell>
        <mxCell id="tVMEHPazCR392lUuAmaW-27" value="" style="endArrow=none;html=1;rounded=0;entryX=0.5;entryY=1;entryDx=0;entryDy=0;exitX=0.5;exitY=0;exitDx=0;exitDy=0;" edge="1" parent="1" source="tVMEHPazCR392lUuAmaW-20" target="tVMEHPazCR392lUuAmaW-18">
          <mxGeometry width="50" height="50" relative="1" as="geometry">
            <mxPoint x="190" y="640" as="sourcePoint" />
            <mxPoint x="240" y="590" as="targetPoint" />
          </mxGeometry>
        </mxCell>
        <mxCell id="tVMEHPazCR392lUuAmaW-28" value="" style="endArrow=none;html=1;rounded=0;entryX=1;entryY=1;entryDx=0;entryDy=0;exitX=0;exitY=0;exitDx=0;exitDy=0;" edge="1" parent="1" source="tVMEHPazCR392lUuAmaW-23" target="tVMEHPazCR392lUuAmaW-18">
          <mxGeometry width="50" height="50" relative="1" as="geometry">
            <mxPoint x="290" y="630" as="sourcePoint" />
            <mxPoint x="340" y="580" as="targetPoint" />
          </mxGeometry>
        </mxCell>
        <mxCell id="tVMEHPazCR392lUuAmaW-29" value="go" style="rhombus;whiteSpace=wrap;html=1;" vertex="1" parent="1">
          <mxGeometry x="190" y="390" width="80" height="80" as="geometry" />
        </mxCell>
        <mxCell id="tVMEHPazCR392lUuAmaW-31" value="" style="endArrow=none;html=1;rounded=0;entryX=0.5;entryY=1;entryDx=0;entryDy=0;exitX=0.5;exitY=0;exitDx=0;exitDy=0;" edge="1" parent="1" source="tVMEHPazCR392lUuAmaW-29" target="tVMEHPazCR392lUuAmaW-1">
          <mxGeometry width="50" height="50" relative="1" as="geometry">
            <mxPoint x="180" y="410" as="sourcePoint" />
            <mxPoint x="230" y="360" as="targetPoint" />
          </mxGeometry>
        </mxCell>
        <mxCell id="tVMEHPazCR392lUuAmaW-37" value="M" style="edgeLabel;html=1;align=center;verticalAlign=middle;resizable=0;points=[];" vertex="1" connectable="0" parent="tVMEHPazCR392lUuAmaW-31">
          <mxGeometry x="0.2083" y="-3" relative="1" as="geometry">
            <mxPoint x="7" y="14" as="offset" />
          </mxGeometry>
        </mxCell>
        <mxCell id="tVMEHPazCR392lUuAmaW-32" value="" style="endArrow=none;html=1;rounded=0;entryX=0.5;entryY=1;entryDx=0;entryDy=0;exitX=0.5;exitY=0;exitDx=0;exitDy=0;" edge="1" parent="1">
          <mxGeometry width="50" height="50" relative="1" as="geometry">
            <mxPoint x="229.66" y="510" as="sourcePoint" />
            <mxPoint x="229.66" y="470" as="targetPoint" />
          </mxGeometry>
        </mxCell>
        <mxCell id="tVMEHPazCR392lUuAmaW-38" value="N" style="edgeLabel;html=1;align=center;verticalAlign=middle;resizable=0;points=[];" vertex="1" connectable="0" parent="tVMEHPazCR392lUuAmaW-32">
          <mxGeometry x="0.1667" relative="1" as="geometry">
            <mxPoint x="10" y="-7" as="offset" />
          </mxGeometry>
        </mxCell>
        <mxCell id="tVMEHPazCR392lUuAmaW-55" value="&lt;span style=&quot;font-size: 24px;&quot;&gt;ER Diagram&lt;/span&gt;" style="text;html=1;align=center;verticalAlign=middle;resizable=0;points=[];autosize=1;strokeColor=none;fillColor=none;fontStyle=1;fontSize=27;" vertex="1" parent="1">
          <mxGeometry x="10" y="50" width="160" height="50" as="geometry" />
        </mxCell>
      </root>
    </mxGraphModel>
  </diagram>
</mxfile>
